<?xml version="1.0" standalone="no"?>
<!DOCTYPE svg PUBLIC "-//W3C//DTD SVG 20010904//EN"
 "http://www.w3.org/TR/2001/REC-SVG-20010904/DTD/svg10.dtd">
<svg version="1.0" xmlns="http://www.w3.org/2000/svg"
 width="211.000000pt" height="211.000000pt" viewBox="0 0 211.000000 211.000000"
 preserveAspectRatio="xMidYMid meet">
<metadata>
Created by potrace 1.14, written by Peter Selinger 2001-2017
</metadata>
<g transform="translate(0.000000,211.000000) scale(0.100000,-0.100000)"
fill="#000000" stroke="none">
<path d="M842 1981 c-18 -9 -30 -20 -26 -24 4 -4 0 -7 -10 -7 -9 0 -14 -4 -11
-10 3 -5 0 -10 -8 -10 -7 0 -23 -9 -35 -20 -12 -11 -34 -25 -49 -31 -31 -13
-163 -18 -163 -7 0 4 -19 -3 -42 -16 -24 -13 -42 -27 -40 -30 1 -4 -4 -14 -13
-22 -8 -9 -15 -25 -16 -37 -4 -99 -16 -148 -55 -228 -28 -56 -35 -84 -36 -132
-1 -33 -9 -88 -18 -122 -17 -63 -17 -76 -5 -107 5 -13 2 -18 -10 -18 -9 0 -14
-4 -11 -8 2 -4 0 -14 -5 -22 -7 -11 -8 -8 -5 12 6 36 -15 42 -43 12 -13 -13
-29 -24 -36 -24 -23 0 -83 -80 -94 -127 -15 -59 -1 -75 25 -28 10 19 26 37 35
40 9 3 26 13 37 23 11 9 43 37 72 62 72 62 122 164 113 230 -3 23 -3 38 0 83
1 9 4 17 7 17 4 0 7 7 8 15 1 8 3 22 4 30 1 8 5 15 10 15 4 0 8 6 8 14 0 8 5
27 12 43 23 56 47 128 48 141 0 6 -9 12 -20 12 -11 0 -20 4 -20 9 0 5 8 7 18
4 11 -2 31 6 48 19 43 35 79 49 92 36 7 -7 16 -8 24 -2 7 6 28 9 45 8 18 -1
35 2 39 7 3 5 10 7 15 4 5 -4 9 -1 9 5 0 6 4 9 9 6 5 -3 12 1 15 10 3 8 10 13
15 10 5 -3 12 1 15 10 3 8 10 12 16 9 5 -3 10 -2 10 4 0 12 60 46 60 34 0 -5
4 -2 9 5 9 15 121 25 121 10 0 -5 4 -7 9 -4 5 3 14 -1 21 -9 7 -8 18 -15 24
-15 7 0 35 -21 63 -47 28 -27 57 -49 64 -51 8 -2 21 -12 31 -22 16 -19 34 -28
24 -12 -2 4 -1 14 5 22 6 10 9 11 9 3 0 -7 7 -13 15 -13 8 0 15 7 15 15 0 8
-6 15 -12 15 -10 0 -10 2 -1 8 7 4 11 15 9 25 -2 17 -44 67 -55 65 -3 0 -8 1
-11 2 -9 3 -45 10 -67 12 -12 1 -21 5 -20 9 1 4 -11 19 -28 35 -16 15 -30 26
-30 24 0 -5 -58 32 -65 41 -11 14 -136 7 -168 -10z"/>
<path d="M880 1772 c-18 -7 -49 -26 -69 -42 -19 -16 -38 -27 -43 -24 -4 3 -8
0 -8 -5 0 -6 -14 -11 -31 -11 -45 0 -63 -14 -83 -62 -43 -102 -66 -133 -111
-144 -42 -10 -62 -67 -64 -180 -1 -55 -8 -107 -16 -127 -8 -17 -14 -26 -15
-19 0 7 -4 11 -9 8 -13 -8 -35 -105 -33 -141 7 -119 7 -121 -32 -178 -42 -61
-48 -81 -34 -117 18 -46 19 -79 3 -109 -8 -17 -20 -31 -26 -31 -6 0 -8 -4 -4
-9 3 -5 -8 -24 -25 -43 -19 -21 -26 -34 -18 -37 7 -2 14 1 16 8 2 6 9 11 15
11 15 0 87 73 87 88 0 5 7 13 16 16 8 3 13 10 9 15 -3 5 -1 12 4 15 5 3 8 36
7 72 -1 46 2 68 11 71 7 3 10 9 7 14 -3 5 -1 9 4 9 9 0 35 52 38 75 1 6 3 12
4 15 10 23 5 67 -8 78 -13 10 -13 12 -1 12 9 0 15 12 16 37 1 23 15 55 39 90
27 39 38 66 39 96 3 62 30 119 70 144 23 16 32 28 28 38 -4 13 0 15 22 9 20
-5 26 -3 23 6 -2 7 5 23 17 36 11 12 22 36 23 54 5 61 41 93 107 94 17 1 35 4
41 8 6 4 14 5 17 1 10 -9 88 -13 101 -5 6 4 14 7 18 7 5 0 21 12 37 27 21 20
27 34 24 52 -6 29 -59 85 -82 87 -70 5 -101 3 -131 -9z"/>
<path d="M1188 1650 c-2 -7 -17 -13 -34 -15 -72 -6 -100 -54 -89 -153 16 -141
16 -189 0 -202 -8 -7 -15 -24 -15 -37 0 -22 3 -24 25 -19 14 4 25 4 25 2 0 -2
-11 -37 -25 -78 -14 -40 -28 -80 -30 -88 -2 -8 -7 -25 -11 -37 -5 -20 -2 -23
22 -24 54 -3 79 -6 109 -14 31 -9 96 -42 105 -54 10 -14 82 -51 107 -55 16 -3
37 2 55 15 15 11 28 17 28 13 0 -4 10 4 23 18 26 28 140 86 184 93 89 15 102
13 143 -16 22 -16 44 -29 49 -29 11 0 52 55 50 67 -4 21 2 43 15 55 7 8 21 29
30 47 22 42 16 50 -93 103 -47 24 -89 47 -92 51 -3 5 -8 7 -10 5 -7 -5 -93 35
-101 47 -5 6 -8 6 -8 0 0 -6 -3 -6 -8 0 -4 6 -27 19 -50 30 -44 19 -44 19 -60
-2 -29 -37 -57 -37 -86 -3 -25 30 -37 88 -16 75 6 -3 10 -2 10 4 0 6 6 8 14 5
26 -10 30 35 6 61 -24 25 -125 97 -175 124 -37 21 -92 26 -97 11z"/>
<path d="M918 1483 c-10 -2 -18 -9 -18 -14 0 -6 -3 -8 -8 -5 -4 2 -16 -15 -27
-39 -15 -35 -27 -47 -59 -59 -60 -23 -94 -72 -100 -140 -3 -34 0 -58 6 -62 7
-5 5 -12 -7 -20 -10 -8 -16 -17 -12 -20 9 -9 -28 -100 -56 -137 -44 -59 -58
-96 -59 -160 -1 -94 0 -100 16 -94 9 4 17 -2 21 -14 4 -10 10 -19 15 -19 5 0
7 -7 4 -15 -4 -8 -10 -12 -15 -9 -5 3 -7 9 -4 14 9 14 -16 23 -28 11 -8 -8 -8
-11 0 -11 8 0 11 -15 9 -40 -2 -22 0 -42 4 -45 8 -5 7 -36 -3 -52 -4 -6 -1
-13 5 -16 10 -3 10 -8 2 -18 -15 -20 -16 -61 -1 -53 8 5 8 3 -1 -7 -6 -7 -12
-27 -12 -44 0 -17 -5 -36 -11 -42 -7 -7 -7 -13 -1 -17 12 -7 42 19 43 37 0 7
2 20 5 30 11 44 11 53 2 71 -8 14 -7 17 3 11 9 -6 11 -3 6 8 -3 10 -3 17 2 17
4 0 8 7 9 15 1 8 3 22 4 30 1 8 4 15 8 15 4 0 5 12 2 26 -3 19 -1 25 7 20 6
-4 12 -2 12 3 3 20 5 26 16 46 6 11 9 38 8 60 -10 137 -2 186 43 233 12 14 23
33 23 43 2 27 3 33 12 47 5 7 4 12 -3 12 -6 0 -9 4 -6 9 4 5 7 29 8 53 1 35 8
50 37 79 20 20 54 41 76 47 50 15 133 75 144 105 11 28 -8 65 -48 95 -30 22
-40 24 -73 15z m-13 -73 c-3 -5 -11 -10 -16 -10 -6 0 -7 5 -4 10 3 6 11 10 16
10 6 0 7 -4 4 -10z m-134 -99 c-7 -5 -11 -13 -7 -19 3 -6 2 -13 -3 -16 -5 -3
-11 1 -15 9 -5 15 22 50 32 40 4 -3 0 -10 -7 -14z"/>
<path d="M927 1170 c-25 -20 -43 -59 -50 -110 -3 -26 -36 -101 -47 -110 -9 -7
-22 -58 -25 -95 -1 -16 7 -57 18 -90 21 -63 31 -155 17 -155 -5 0 -7 -9 -5
-20 2 -11 0 -18 -6 -15 -5 4 -10 1 -10 -4 -3 -21 -4 -26 -12 -38 -5 -7 -5 -13
0 -13 4 0 1 -5 -7 -10 -12 -8 -12 -10 -1 -10 9 0 10 -4 3 -12 -11 -15 -13
-116 -2 -136 4 -8 -1 -43 -11 -78 -10 -35 -14 -64 -9 -64 14 0 41 31 35 40 -3
5 -1 11 4 15 5 3 8 14 6 25 -2 11 -1 20 3 20 4 0 8 8 9 17 3 36 12 72 23 92 7
13 7 21 1 21 -7 0 -7 9 0 28 6 15 10 28 10 30 -4 12 3 23 27 47 15 16 20 25
12 20 -8 -4 -4 4 10 19 21 23 25 37 24 84 -2 75 -5 92 -17 92 -6 0 -7 3 -4 7
4 3 2 12 -4 19 -6 8 -12 37 -12 66 -1 56 20 111 56 150 46 50 59 79 54 119 -9
66 -44 85 -90 49z"/>
<path d="M1626 978 c3 -4 -3 -8 -14 -8 -11 0 -36 -11 -56 -25 -20 -14 -40 -25
-43 -25 -12 0 -63 -64 -60 -74 2 -6 25 -10 52 -8 30 1 57 -4 71 -13 13 -8 30
-12 38 -9 10 4 16 1 16 -9 0 -22 -16 -30 -39 -18 -29 16 -56 -20 -55 -73 1
-39 38 -110 67 -128 7 -4 13 -12 13 -18 1 -5 2 -11 4 -12 4 -6 10 -44 12 -70
0 -16 5 -28 10 -28 5 0 3 -6 -5 -14 -8 -9 -12 -26 -10 -39 3 -14 0 -28 -6 -31
-17 -11 -13 -99 5 -136 9 -18 25 -35 35 -37 10 -3 17 -8 15 -12 -6 -9 16 -25
39 -30 20 -3 20 -3 1 18 -11 12 -15 21 -10 21 5 0 4 4 -3 8 -7 4 -13 22 -15
40 -1 18 -6 32 -11 32 -11 0 -5 43 8 52 6 5 5 8 -3 8 -10 0 -10 5 -2 20 8 15
8 20 -2 20 -9 0 -9 3 2 10 8 5 12 12 8 15 -4 4 -1 27 7 51 7 24 10 44 5 44 -4
0 -5 11 -2 25 2 14 7 25 11 25 8 0 6 36 -4 85 -8 39 -35 95 -46 95 -5 0 -9 7
-9 16 0 8 -4 13 -9 9 -14 -8 -25 15 -13 27 7 7 24 -5 54 -35 39 -40 45 -44 62
-32 11 9 19 27 19 49 1 19 5 32 9 30 4 -3 8 1 8 8 0 7 9 24 20 38 25 32 27 89
3 92 -10 0 -24 2 -31 2 -7 1 -16 6 -20 12 -4 6 -16 14 -27 19 -32 12 -105 23
-99 13z"/>
<path d="M1125 952 c-5 -4 -18 -22 -27 -40 -16 -30 -16 -37 -3 -68 15 -36 13
-86 -5 -134 -20 -50 -19 -113 1 -142 11 -14 19 -31 19 -37 0 -6 5 -11 10 -11
14 0 12 -27 -2 -33 -7 -3 -4 -6 7 -6 12 -1 26 4 33 11 17 17 15 -3 -3 -26 -7
-10 -18 -15 -24 -11 -13 8 -14 -15 -2 -34 7 -10 4 -19 -7 -28 -13 -9 -13 -12
-3 -13 11 0 11 -3 0 -17 -11 -13 -11 -15 -1 -9 11 6 11 4 4 -10 -6 -11 -16
-34 -22 -51 -7 -18 -17 -33 -22 -33 -7 0 -6 -5 1 -13 6 -8 8 -17 4 -21 -10
-10 -13 -37 -3 -31 4 2 10 -9 14 -25 7 -35 31 -40 34 -7 1 12 4 31 6 42 3 11
5 24 5 28 1 5 7 5 14 1 8 -5 8 -2 -2 9 -7 9 -10 17 -5 17 10 0 50 90 46 103
-1 4 3 7 9 7 8 0 9 4 0 13 -6 8 -8 17 -4 20 9 10 12 87 2 87 -4 0 -6 11 -4 25
1 14 -1 25 -5 25 -4 0 -7 6 -8 13 0 6 -3 25 -5 41 -4 28 8 63 26 77 4 3 7 10
6 15 -2 14 13 54 20 54 14 0 4 125 -11 152 -12 22 -17 25 -28 15 -10 -10 -12
-9 -7 6 4 9 4 23 1 30 -5 14 -44 20 -59 9z m-20 -342 c-3 -5 -1 -10 6 -10 7 0
10 -3 6 -6 -9 -9 -28 6 -22 17 4 5 8 9 11 9 3 0 2 -4 -1 -10z"/>
<path d="M1333 840 c-25 -10 -32 -57 -10 -65 6 -3 13 -18 14 -34 1 -15 3 -32
4 -37 1 -5 -1 -30 -5 -55 -6 -33 -3 -56 8 -82 14 -35 36 -50 36 -26 0 5 5 7
10 4 6 -4 8 -11 5 -16 -4 -5 -4 -9 -1 -9 2 0 12 -3 21 -6 9 -4 15 -3 14 2 -3
13 10 66 22 87 8 15 6 20 -10 24 -12 3 -18 9 -16 14 3 4 12 6 20 3 46 -18 14
119 -40 173 -35 35 -38 36 -72 23z"/>
<path d="M1385 445 c-4 -11 -11 -28 -16 -37 -15 -29 -11 -69 18 -156 17 -52
35 -88 47 -94 18 -10 19 -7 13 48 -3 33 -12 72 -20 88 -14 26 -14 30 1 46 11
12 17 34 16 62 0 36 -4 42 -19 40 -10 -2 -21 2 -26 9 -6 10 -10 8 -14 -6z"/>
<path d="M561 342 c-1 -8 -6 -10 -13 -6 -10 5 -10 4 -1 -6 15 -16 28 -8 20 12
-4 11 -6 11 -6 0z"/>
<path d="M1085 299 c-4 -6 -5 -12 -2 -15 2 -3 7 2 10 11 7 17 1 20 -8 4z"/>
</g>
</svg>
